<svg width="20" height="20" viewBox="0 0 448 512" xmlns="http://www.w3.org/2000/svg" fill="none">
  <path fill="white" d="M100.28 448H7.4V149.9h92.88zm-46.44-340.6c-31.77 0-57.4-25.64-57.4-57.4S22.07 0 53.84 0s57.4 25.63 57.4 57.4-25.64 57.4-57.4 57.4zm394.44 340.6h-92.68V302.4c0-34.7-12.49-58.4-43.7-58.4-23.85 0-38.04 16.06-44.27 31.56-2.27 5.53-2.84 13.24-2.84 20.97v151.47h-92.68s1.23-245.79 0-271.1h92.68v38.4c12.31-19.01 34.32-46.13 83.44-46.13 60.93 0 106.64 39.82 106.64 125.43V448z"/>
</svg>
