<svg width="20" height="20" viewBox="0 0 1024 1024" xmlns="http://www.w3.org/2000/svg" fill="none">
  <path fill="white" d="M512 0C229.23 0 0 229.23 0 512c0 226.44 146.71 418.3 350.12 485.64 25.59 4.7 34.98-11.12 34.98-24.7v-86.1c-142.39 30.95-172.46-61.15-172.46-61.15-23.27-59.11-56.84-74.85-56.84-74.85-46.47-31.79 3.52-31.15 3.52-31.15 51.36 3.61 78.38 52.72 78.38 52.72 45.67 78.24 119.86 55.63 149.21 42.55 4.7-33.07 17.87-55.64 32.51-68.44-113.7-12.93-233.28-56.86-233.28-253.03 0-55.9 19.96-101.63 52.7-137.46-5.29-12.92-22.82-64.97 5.03-135.49 0 0 42.96-13.74 140.8 52.47 40.83-11.36 84.67-17.03 128.23-17.23 43.55.2 87.4 5.87 128.24 17.23 97.84-66.21 140.77-52.47 140.77-52.47 27.88 70.52 10.34 122.57 5.05 135.49 32.76 35.83 52.7 81.56 52.7 137.46 0 196.59-119.75 240.03-233.88 252.66 18.38 15.84 34.74 47.09 34.74 94.9v140.82c0 13.7 9.32 29.64 35.13 24.63C877.4 930.3 1024 738.45 1024 512 1024 229.23 794.77 0 512 0z"/>
</svg>
