<svg width="24" height="24" viewBox="0 0 24 24" fill="none" xmlns="http://www.w3.org/2000/svg">
  <path d="M12 0.75C5.5075 0.75 0.75 5.505 0.75 12C0.75 17.3175 4.185 21.675 8.9175 23.085C9.4575 23.175 9.675 22.86 9.675 22.5975C9.675 22.3725 9.6675 21.6375 9.66 20.7075C6.15 21.4875 5.385 19.4925 5.385 19.4925C4.86 18.21 4.095 17.8725 4.095 17.8725C2.9925 17.1675 4.185 17.1825 4.185 17.1825C5.4075 17.25 6.045 18.3975 6.045 18.3975C7.1475 20.2275 8.92 19.74 9.5925 19.4625C9.6825 18.7125 9.9675 18.2475 10.275 17.9625C7.4775 17.6775 4.5675 16.5975 4.5675 11.835C4.5675 10.51 5.0075 9.4575 5.7375 8.655C5.625 8.3625 5.2575 7.065 5.85 5.3175C5.85 5.3175 6.8475 5.0075 9.6675 6.67C10.6175 6.375 11.6325 6.225 12.6475 6.225C13.6625 6.225 14.6775 6.375 15.63 6.67C18.45 5.0025 19.4475 5.3175 19.4475 5.3175C20.04 7.065 19.6725 8.3625 19.56 8.655C20.2875 9.4575 20.7325 10.51 20.7325 11.835C20.7325 16.61 17.8125 17.6725 15.0075 17.9475C15.405 18.315 15.7425 19.035 15.7425 20.1075C15.7425 21.8025 15.7275 22.725 15.7275 22.5975C15.7275 22.855 15.945 23.175 16.4925 23.085C21.2475 21.6825 24.75 17.31 24.75 12C24.75 5.505 19.9925 0.75 12 0.75Z" fill="#FFFFFF"/>
</svg>
